PathFileType	3	(X/Y/Z)	D:\minhoCalibration\240510\subject4_KPNP\preferred\preferred09.trc
DataRate	CameraRate	NumFrames	NumMarkers	Units	OrigDataRate	OrigDataStartFrame	OrigNumFrames
200.0	200.0	22	10	mm	200.0	320	83	
Frame#	Time	Left_Ankle_Outer1			Left_Ankle_Inner1			Left_Knee_Outer1			Left_Knee_Inner1			Left_Wrist1			Right_Wrist1			Right_Knee_Inner1			Right_Knee_Outer1			Right_Ankle_Inner1			Right_Ankle_Outer1			
		X1	Y1	Z1	X2	Y2	Z2	X3	Y3	Z3	X4	Y4	Z4	X5	Y5	Z5	X6	Y6	Z6	X7	Y7	Z7	X8	Y8	Z8	X9	Y9	Z9	X10	Y10	Z10	
320	1.59	-515.24915	477.50024	1492.2228	-440.13647	432.55096	1434.5424	-656.7265	674.30853	1051.6366	-551.39832	639.24622	1021.5453	-489.40646	1073.687	1243.5486	-212.09793	920.56903	1410.0327	-274.14404	515.08075	1180.8756	-209.46107	520.68756	1270.6873	-434.51102	73.94165	1307.75	-393.50549	80.302193	1345.9332
321	1.595	-524.20715	493.00162	1471.5675	-447.2663	447.82007	1416.8496	-648.44653	690.78589	1027.6697	-542.09515	655.45496	1000.9205	-482.98914	1081.9788	1236.4923	-213.9422	923.30963	1411.9877	-274.85184	517.07684	1183.1962	-210.50665	522.87805	1273.5201	-433.80829	75.288231	1307.4692	-393.20966	81.703613	1346.0869
322	1.6	-534.21362	508.94122	1450.9484	-455.54752	463.53552	1399.4525	-638.46753	707.66241	1004.1782	-533.20276	671.24628	981.98627	-476.54663	1090.146	1229.9186	-215.79906	925.96368	1414.2939	-274.44421	518.87994	1184.3679	-211.73474	525.17096	1275.7904	-433.26901	76.631332	1307.0092	-392.80017	83.115067	1345.8458
323	1.605	-545.15723	525.32404	1430.3165	-465.39169	479.07864	1381.999	-627.39246	725.15625	980.57629	-520.00323	687.97418	960.6156	-469.80338	1098.2948	1223.5205	-218.39528	928.17865	1416.2664	-274.35553	520.95343	1185.875	-212.49608	527.48315	1278.4019	-432.82703	78.442162	1306.5759	-393.02127	84.85218	1345.9922
324	1.61	-556.83319	542.26483	1409.4105	-475.61133	495.07907	1365.2609	-615.27698	743.62677	957.95367	-508.75323	704.64307	943.72815	-463.32556	1106.2482	1217.9811	-221.32567	930.08813	1418.6234	-273.7916	522.74524	1187.0211	-213.18463	529.73438	1280.7505	-432.43021	80.43454	1305.8542	-393.056	86.458954	1345.6414
325	1.615	-569.44434	559.56934	1388.1324	-486.86267	510.85269	1348.1191	-601.22888	762.26489	935.71289	-494.11011	722.34656	925.94226	-456.58017	1113.6187	1212.8041	-224.42786	931.82837	1420.9307	-273.37265	524.78412	1188.2993	-213.55896	531.88416	1283.0171	-432.11325	82.546265	1304.7136	-393.45532	88.390511	1345.1367
326	1.62	-582.78961	577.43768	1366.3112	-499.84738	527.15283	1330.5779	-586.10394	781.51624	914.61389	-479.22198	738.98999	909.01343	-449.48883	1120.9503	1207.8315	-228.00876	932.95862	1423.3436	-271.46442	526.66302	1188.5398	-213.7381	534.06274	1285.2166	-432.0907	84.965431	1303.2859	-393.93716	90.458206	1344.3496
327	1.625	-596.87183	595.9931	1343.9221	-513.00183	543.61505	1313.5708	-569.38275	800.71802	894.25946	-463.91949	755.32159	894.21515	-442.70148	1128.2631	1203.4647	-232.40376	933.87836	1425.4296	-269.63083	528.58746	1189.0392	-214.07059	536.22247	1286.921	-432.06808	87.812561	1301.5355	-394.65143	92.821358	1343.3041
328	1.63	-611.4823	615.24261	1320.574	-527.76184	560.68011	1295.6062	-551.54102	820.3858	875.4527	-447.51556	771.39081	880.84723	-435.94186	1135.3291	1199.6052	-236.90421	934.66779	1428.2683	-266.08929	530.69666	1188.4827	-213.89436	538.58044	1289.1934	-432.26447	91.009552	1299.6356	-395.18414	95.414062	1341.8654
329	1.635	-626.48444	635.04816	1296.4384	-542.88544	577.78027	1276.5127	-532.34467	839.90039	858.00842	-430.72824	787.29437	869.20587	-428.41528	1142.365	1195.3285	-242.18269	935.12677	1430.5007	-262.52246	532.1756	1188.0076	-213.65556	540.82227	1290.9591	-431.07251	93.617981	1297.3682	-396.05594	98.357864	1340.4935
330	1.64	-641.43536	655.42517	1271.0007	-558.92975	595.18073	1256.1583	-512.14014	859.36102	842.32043	-413.21909	803.04285	858.58258	-421.63165	1148.9077	1192.3284	-248.12027	935.3338	1433.2313	-258.93768	534.71545	1188.3331	-213.08104	543.40643	1292.7208	-430.32013	96.302368	1293.7252	-396.76263	101.59091	1338.6001
331	1.645	-656.31409	676.35651	1244.4706	-575.83679	612.97058	1234.4198	-490.75958	878.8468	827.52289	-396.58298	817.40857	849.75098	-414.7012	1155.1489	1189.6255	-254.43047	935.40063	1435.6633	-253.93095	537.10284	1188.4487	-212.69867	545.84064	1293.8488	-429.85684	100.08224	1291.2351	-397.29852	105.02769	1336.4502
332	1.65	-670.81879	698.13635	1216.6332	-593.17548	631.00641	1210.907	-468.50107	896.95807	816.32477	-378.84131	831.30725	842.40955	-408.1246	1161.035	1187.5247	-261.33875	935.17786	1438.0087	-249.17918	539.0957	1188.5103	-211.8949	548.6955	1295.33	-430.26834	104.71944	1288.2369	-397.58347	108.61948	1333.9124
333	1.655	-685.02209	720.71478	1187.3141	-610.60712	649.45227	1185.5876	-445.8952	914.87848	806.30957	-361.7558	844.09912	836.36353	-401.60229	1166.2784	1185.7292	-268.8075	934.7843	1440.2327	-243.62994	541.86157	1188.5295	-211.41492	551.33521	1295.8469	-428.82858	108.4198	1284.684	-397.6893	112.23514	1331.3232
334	1.66	-698.45801	743.75269	1156.8141	-627.90961	668.39648	1158.1494	-423.33859	931.92694	798.27246	-345.21832	855.99756	831.66425	-394.83649	1171.7391	1184.2335	-276.86768	934.4646	1442.0344	-238.6329	544.68561	1189.3428	-210.40948	554.44214	1297.0345	-427.44327	111.87734	1280.4901	-397.07962	115.83665	1328.118
335	1.665	-710.29791	767.04449	1124.4797	-644.72876	687.96289	1128.812	-400.97784	948.44556	792.43475	-329.47897	866.93445	828.06519	-388.39767	1176.434	1183.1504	-285.4498	933.60553	1444.1246	-233.60367	547.41113	1189.8036	-209.95636	557.46368	1297.2679	-425.56573	115.76019	1276.8136	-396.18503	119.27937	1324.8191
336	1.67	-721.82623	791.16705	1090.5801	-661.05762	708.55853	1096.9039	-378.69449	964.00092	788.28455	-314.50897	876.94653	825.29785	-382.12552	1180.5817	1182.38	-294.69476	932.62268	1445.3655	-228.78658	550.22137	1190.3717	-209.56906	560.68854	1297.7683	-423.41116	119.30351	1272.9006	-395.01819	122.5988	1321.4703
337	1.675	-731.96014	815.46246	1054.5762	-676.0686	729.5293	1063.1406	-356.41464	977.98553	785.68622	-300.59369	886.14594	823.33435	-375.80939	1184.4064	1181.8921	-304.52664	931.61505	1446.3755	-224.19257	553.52942	1191.0214	-209.59348	564.27252	1298.4587	-421.36191	122.63248	1268.8523	-393.6824	125.7534	1318.1472
338	1.68	-740.39264	840.03802	1016.4465	-689.76111	751.20673	1026.6266	-335.2561	990.45276	784.83691	-287.77054	894.53442	822.0155	-370.05484	1187.6355	1181.6403	-314.85471	930.55334	1446.9187	-220.74551	556.71252	1191.9772	-210.01639	567.94208	1299.2817	-419.03296	125.70428	1264.9661	-392.20532	128.73184	1314.9304
339	1.685	-747.60583	865.37115	976.63953	-702.04852	773.92499	987.27643	-315.09641	1001.361	785.3432	-276.22412	902.06598	821.33417	-364.16391	1190.6556	1181.6552	-325.65515	929.65045	1447.9944	-217.41318	560.3476	1192.4958	-211.12471	571.61432	1299.9058	-416.01132	128.72557	1262.0424	-390.74716	131.44377	1311.8162
340	1.69	-752.12463	890.76794	934.64752	-711.95148	797.36938	945.71649	-296.08044	1010.8804	787.04291	-266.01172	908.77728	821.1123	-358.97043	1192.8912	1181.9712	-337.00421	929.14178	1448.3774	-215.6333	563.80334	1193.2654	-212.76295	575.37537	1300.6003	-413.84094	131.29579	1258.087	-389.38284	133.89262	1308.9786
341	1.695	-753.97375	917.20905	890.47314	-719.16638	821.90466	903.31799	-278.58817	1018.9601	789.87335	-257.37921	914.9198	821.21375	-353.71875	1195.3884	1182.1022	-347.60989	928.04938	1446.2319	-214.00845	567.41138	1193.3805	-215.16289	578.97125	1301.2585	-411.83191	133.65015	1255.1665	-388.21207	136.03996	1306.3658
